  <svg id="SvgjsSvg1058" width="2191" height="484" xmlns="http://www.w3.org/2000/svg" version="1.1"
    xlink="http://www.w3.org/1999/xlink" xmlns:svgjs="http://svgjs.com/svgjs"
    preserveAspectRatio="xMidYMid meet"
    viewBox="0 0 2191 484" overflow="visible">
    <g id="logo" transform="scale(3.5)" opacity="1">
    <g id="octa"
      transform="translate(-0.1, -1.32) scale(1.42)"
      light-content="false" non-strokable="false" fill="#01df4f">
        <path
          d="M47 1.732l37.301 21.536a6 6 0 0 1 3 5.196v43.072a6 6 0 0 1-3 5.196L47 98.268a6 6 0 0 1-6 0L3.699 76.732a6 6 0 0 1-3-5.196V28.464a6 6 0 0 1 3-5.196L41 1.732a6 6 0 0 1 6 0z"></path>
      </g>
    <g id="tool"
      transform="translate(25, 33) scale(0.73)"
      light-content="true" non-strokable="false" fill="#ffffff">
        <path
          d="M91.703 72.391l-15.516-15.5c1.86-4.172 2.953-8.703 3.219-13.438a38.13 38.13 0 0 0-11.094-29.016C63.359 9.484 57.156 5.984 50.374 4.359a1.855 1.855 0 0 0-.969.016L37.186 7.703a1.941 1.941 0 0 0-1.375 1.375c-.172.672.016 1.39.516 1.89l16.828 16.828-5.063 18.86-18.859 5.062-16.828-16.844c-.484-.469-1.172-.672-1.812-.516a1.92 1.92 0 0 0-1.407 1.266L4.406 49.28c-.126.36-.141.734-.048 1.11 2.016 8.374 6.72 15.64 13.594 21.046 6.797 5.344 15.11 8 23.406 8a38.444 38.444 0 0 0 15.516-3.25L72.39 91.717c2.672 2.64 6.157 3.969 9.657 3.969s7-1.328 9.656-3.984c2.578-2.594 4-6.016 4-9.641s-1.422-7.078-4-9.672zm-2.766 16.547c-3.797 3.797-9.984 3.797-13.78.016L60.5 74.298a36.381 36.381 0 0 0 4.625-3.125c3.766-3.032 6.86-6.625 9.203-10.625l14.61 14.609c1.843 1.843 2.859 4.297 2.859 6.906s-1.016 5.031-2.86 6.875z"></path>
      </g>
    <g id="text" class="text"
      transform="translate(375, 90) scale(1)" light-content="false"
      fill="#4d4d4d">
        <path
          d="M-197.1 -16.08C-195.54 -15.32 -194.1 -14.52 -192.78 -13.68C-191.46 -12.84 -190.8 -12.06 -190.8 -11.34C-190.8 -10.58 -191.25 -9.86 -192.15 -9.18C-193.05 -8.5 -194.36 -8.16 -196.08 -8.16C-197.56 -8.16 -199.25 -8.43 -201.15 -8.97C-203.05 -9.51 -204.52 -10.1 -205.56 -10.74L-209.16 -2.52C-207.56 -1.56 -205.45 -0.77 -202.83 -0.15C-200.21 0.47 -197.86 0.78 -195.78 0.78C-190.74 0.78 -186.77 -0.36 -183.87 -2.64C-180.97 -4.92 -179.52 -7.78 -179.52 -11.22C-179.52 -14.54 -180.86 -17.32 -183.54 -19.56C-186.22 -21.8 -189 -23.66 -191.88 -25.14C-193.56 -26.02 -195.01 -26.79 -196.23 -27.45C-197.45 -28.11 -198.06 -28.88 -198.06 -29.76C-198.06 -30.52 -197.7 -31.19 -196.98 -31.77C-196.26 -32.35 -195.28 -32.64 -194.04 -32.64C-192.68 -32.64 -191.44 -32.53 -190.32 -32.31C-189.2 -32.09 -187.56 -31.6 -185.4 -30.84L-182.16 -38.22C-183.76 -39.3 -185.65 -40.13 -187.83 -40.71C-190.01 -41.29 -192.12 -41.58 -194.16 -41.58C-198.8 -41.58 -202.48 -40.47 -205.2 -38.25C-207.92 -36.03 -209.3 -33.24 -209.34 -29.88C-209.34 -26.4 -207.98 -23.57 -205.26 -21.39C-202.54 -19.21 -199.82 -17.44 -197.1 -16.08Z M-167.76 0L-156.84 0L-156.84 -40.8L-167.76 -40.8Z M-115.02 0L-104.1 0L-104.1 -40.8L-111.36 -40.8L-122.64 -25.26L-134.94 -40.8L-142.44 -40.8L-142.44 0L-131.52 0L-131.52 -19.74L-124.92 -11.7L-120.54 -12.3L-115.02 -19.74Z M-89.7 0L-78.78 0L-78.78 -11.88L-73.02 -11.88C-68.62 -11.88 -64.64 -13.03 -61.08 -15.33C-57.52 -17.63 -55.74 -21.22 -55.74 -26.1C-55.74 -31.02 -57.41 -34.7 -60.75 -37.14C-64.09 -39.58 -68.02 -40.8 -72.54 -40.8L-89.7 -40.8ZM-72.9 -32.22C-71.06 -32.22 -69.62 -31.65 -68.58 -30.51C-67.54 -29.37 -67.02 -27.9 -67.02 -26.1C-67.02 -24.5 -67.56 -23.16 -68.64 -22.08C-69.72 -21 -71.1 -20.46 -72.78 -20.46L-78.78 -20.46L-78.78 -32.22Z M-14.46 0L-15.48 -8.58L-32.82 -8.58L-32.82 -40.8L-43.74 -40.8L-43.74 0Z M-3.66 0L26.22 0L25.2 -8.58L7.26 -8.58L7.26 -16.2L20.82 -16.2L19.8 -24.78L7.26 -24.78L7.26 -32.22L24.42 -32.22L23.4 -40.8L-3.66 -40.8Z M46.02 0L56.94 0L56.94 -32.22L69.96 -32.22L68.94 -40.8L34.02 -40.8L34.02 -32.22L46.02 -32.22Z M78.96 -20.22C78.96 -14.38 80.64 -9.41 84 -5.31C87.36 -1.21 92.3 0.84 98.82 0.84C105.06 0.84 109.94 -1.16 113.46 -5.16C116.98 -9.16 118.74 -14.32 118.74 -20.64C118.74 -26.48 117.08 -31.44 113.76 -35.52C110.44 -39.6 105.46 -41.64 98.82 -41.64C92.7 -41.64 87.86 -39.64 84.3 -35.64C80.74 -31.64 78.96 -26.5 78.96 -20.22ZM90.18 -20.28C90.18 -23.96 90.96 -26.92 92.52 -29.16C94.08 -31.4 96.22 -32.52 98.94 -32.52C101.98 -32.52 104.17 -31.39 105.51 -29.13C106.85 -26.87 107.52 -24.04 107.52 -20.64C107.52 -16.52 106.76 -13.43 105.24 -11.37C103.72 -9.31 101.56 -8.28 98.76 -8.28C95.68 -8.28 93.48 -9.42 92.16 -11.7C90.84 -13.98 90.18 -16.84 90.18 -20.28Z M129.54 -20.22C129.54 -14.38 131.22 -9.41 134.58 -5.31C137.94 -1.21 142.88 0.84 149.4 0.84C155.64 0.84 160.52 -1.16 164.04 -5.16C167.56 -9.16 169.32 -14.32 169.32 -20.64C169.32 -26.48 167.66 -31.44 164.34 -35.52C161.02 -39.6 156.04 -41.64 149.4 -41.64C143.28 -41.64 138.44 -39.64 134.88 -35.64C131.32 -31.64 129.54 -26.5 129.54 -20.22ZM140.76 -20.28C140.76 -23.96 141.54 -26.92 143.1 -29.16C144.66 -31.4 146.8 -32.52 149.52 -32.52C152.56 -32.52 154.75 -31.39 156.09 -29.13C157.43 -26.87 158.1 -24.04 158.1 -20.64C158.1 -16.52 157.34 -13.43 155.82 -11.37C154.3 -9.31 152.14 -8.28 149.34 -8.28C146.26 -8.28 144.06 -9.42 142.74 -11.7C141.42 -13.98 140.76 -16.84 140.76 -20.28Z M211.2 0L210.18 -8.58L192.84 -8.58L192.84 -40.8L181.92 -40.8L181.92 0Z"></path>
      </g>

    </g>
  </svg>
